<?xml version="1.0" standalone="no"?>
<!DOCTYPE svg PUBLIC "-//W3C//DTD SVG 20010904//EN"
 "http://www.w3.org/TR/2001/REC-SVG-20010904/DTD/svg10.dtd">
<svg version="1.0" xmlns="http://www.w3.org/2000/svg"
 width="1070.000000pt" height="1308.000000pt" viewBox="0 0 1070.000000 1308.000000"
 preserveAspectRatio="xMidYMid meet">
<metadata>
Created by potrace 1.16, written by Peter Selinger 2001-2019
</metadata>
<g transform="translate(0.000000,1308.000000) scale(0.100000,-0.100000)"
fill="#000000" stroke="none">
<path d="M5988 12683 c-21 -2 -38 -8 -38 -13 0 -5 -15 -12 -34 -15 -19 -4 -43
-15 -55 -26 -11 -10 -24 -19 -28 -19 -11 0 -113 -108 -113 -121 0 -5 -7 -12
-15 -15 -8 -4 -15 -15 -15 -25 0 -10 -4 -19 -9 -19 -5 0 -12 -13 -16 -30 -4
-16 -11 -30 -16 -30 -5 0 -9 -9 -9 -20 0 -11 -4 -20 -9 -20 -6 0 -13 -20 -17
-45 -3 -25 -10 -43 -14 -40 -4 3 -11 -20 -15 -50 -3 -30 -11 -55 -16 -55 -5 0
-9 -16 -9 -35 0 -19 -4 -35 -9 -35 -5 0 -13 -29 -16 -65 -4 -36 -11 -65 -16
-65 -5 0 -9 -22 -9 -48 0 -26 -4 -52 -10 -58 -5 -5 -13 -58 -16 -117 -4 -59
-11 -107 -16 -107 -4 0 -8 -31 -8 -68 0 -38 -3 -72 -7 -76 -5 -4 -8 -11 -9
-14 0 -4 -4 -63 -8 -132 -5 -69 -13 -131 -19 -139 -15 -17 -11 -604 3 -609 15
-6 13 -815 -2 -830 -9 -9 -9 -12 1 -12 7 0 9 -4 6 -10 -11 -18 -15 -53 -6 -64
7 -9 27 -575 23 -648 0 -10 4 -18 9 -18 12 0 5 -746 -9 -955 -6 -82 -12 -169
-13 -192 -2 -24 -6 -43 -10 -43 -3 0 -9 -32 -12 -72 -3 -39 -11 -76 -17 -82
-5 -5 -10 -18 -10 -28 0 -10 -4 -18 -9 -18 -5 0 -12 -11 -15 -25 -4 -14 -11
-25 -16 -25 -6 0 -10 -5 -10 -11 0 -16 -25 -37 -54 -45 -14 -3 -26 -10 -26
-15 0 -5 -16 -9 -35 -7 -19 1 -35 6 -35 10 0 4 -6 8 -14 8 -7 0 -31 18 -52 40
-54 56 -64 68 -64 80 0 5 -4 10 -9 10 -5 0 -12 14 -16 30 -4 17 -11 30 -16 30
-5 0 -9 11 -9 25 0 14 -4 25 -9 25 -5 0 -12 23 -16 50 -4 28 -11 50 -15 50 -5
0 -11 34 -15 75 -4 41 -11 75 -16 75 -5 0 -9 34 -9 76 0 47 -4 73 -10 69 -6
-4 -10 24 -11 77 0 46 -2 92 -4 103 -2 11 -5 57 -6 102 -1 45 -6 80 -10 77 -5
-3 -9 40 -9 95 0 56 -4 101 -9 101 -5 0 -12 81 -16 180 -4 99 -11 183 -16 186
-5 3 -9 41 -9 85 0 44 -4 78 -9 75 -5 -3 -12 48 -16 114 -4 66 -11 120 -16
120 -5 0 -9 25 -9 55 0 30 -4 55 -9 55 -5 0 -12 54 -16 120 -4 66 -11 120 -15
120 -7 0 -27 351 -22 373 1 4 -2 7 -7 7 -6 0 -10 114 -11 285 0 176 3 285 9
285 6 0 10 57 10 140 0 77 -4 140 -8 140 -5 0 -9 48 -10 107 -1 59 -6 110 -10
113 -5 3 -11 66 -15 140 -4 74 -12 137 -17 138 -5 2 -9 24 -9 48 0 24 -4 44
-9 44 -4 0 -11 33 -15 73 -4 39 -11 74 -16 75 -6 2 -10 15 -10 28 0 13 -4 24
-10 24 -5 0 -13 18 -16 40 -4 22 -10 40 -14 40 -4 0 -11 16 -14 35 -4 19 -11
35 -16 35 -6 0 -10 7 -10 15 0 8 -4 15 -9 15 -5 0 -12 14 -16 30 -4 17 -15 36
-26 43 -10 6 -19 20 -19 29 0 10 -13 32 -30 50 -16 17 -30 35 -30 39 0 5 -6 9
-14 9 -8 0 -21 6 -28 13 -25 22 -57 37 -98 43 -22 4 -40 10 -40 15 0 5 -58 9
-130 9 -71 0 -130 -4 -130 -9 0 -4 -22 -11 -49 -14 -45 -5 -87 -22 -101 -38
-3 -4 -16 -10 -29 -14 -27 -8 -151 -126 -151 -144 0 -6 -4 -11 -10 -11 -5 0
-12 -16 -16 -35 -3 -19 -10 -35 -15 -35 -4 0 -11 -16 -15 -35 -3 -19 -10 -35
-15 -35 -5 0 -9 -9 -9 -20 0 -11 -4 -20 -9 -20 -5 0 -12 -29 -16 -65 -3 -36
-11 -65 -16 -65 -5 0 -9 -24 -9 -53 0 -29 -6 -59 -12 -65 -10 -10 -13 -131
-13 -525 0 -547 3 -667 16 -667 5 0 9 -187 9 -415 0 -236 -4 -415 -9 -415 -19
0 -21 -714 -2 -733 6 -6 11 -36 11 -67 0 -31 4 -60 9 -65 6 -6 13 -83 17 -172
4 -89 11 -160 15 -157 5 3 9 -99 9 -226 0 -135 -4 -229 -9 -226 -5 4 -12 -42
-16 -102 -4 -59 -11 -109 -16 -112 -15 -10 -14 -534 1 -525 6 4 10 -11 10 -37
1 -74 12 -163 21 -166 5 -2 9 -28 9 -58 0 -31 4 -53 9 -50 8 5 28 -205 22
-228 -1 -4 3 -14 10 -22 16 -19 19 -1035 3 -1055 -6 -8 -14 -43 -18 -79 -3
-36 -11 -66 -16 -68 -6 -2 -10 -12 -10 -23 0 -11 -16 -35 -37 -55 -35 -34 -38
-35 -87 -29 -28 4 -55 11 -61 16 -5 5 -17 9 -27 9 -10 0 -18 4 -18 9 0 5 -18
12 -40 16 -22 4 -38 11 -34 16 3 5 -1 9 -8 10 -37 2 -63 11 -77 28 -9 10 -27
22 -41 26 -14 4 -32 16 -40 25 -8 9 -25 20 -37 24 -13 4 -23 12 -23 17 0 5 -5
9 -11 9 -11 0 -37 23 -121 108 -96 96 -128 130 -128 138 0 3 -11 17 -25 30
-14 13 -25 30 -25 38 0 8 -6 19 -12 23 -15 9 -36 41 -44 66 -4 9 -10 17 -15
17 -5 0 -9 7 -9 16 0 8 -4 12 -10 9 -6 -3 -10 -1 -10 5 0 17 -32 82 -47 98 -7
7 -13 22 -13 33 0 11 -5 17 -10 14 -5 -3 -10 1 -10 9 0 9 -4 16 -9 16 -5 0
-12 18 -16 40 -4 22 -11 40 -16 40 -5 0 -9 7 -9 16 0 15 -29 74 -41 84 -3 3
-9 22 -13 43 -4 20 -11 37 -16 37 -6 0 -10 11 -10 25 0 14 -4 25 -9 25 -5 0
-12 18 -16 40 -4 22 -11 40 -16 40 -5 0 -9 9 -9 20 0 11 -4 20 -9 20 -5 0 -12
13 -16 30 -4 16 -11 30 -16 30 -5 0 -9 9 -9 20 0 11 -7 23 -15 26 -8 4 -15 12
-15 20 0 8 -4 14 -9 14 -5 0 -13 10 -17 23 -4 12 -15 29 -25 38 -11 9 -19 21
-19 28 0 6 -13 24 -30 39 -16 16 -30 32 -30 36 0 7 -17 30 -38 49 -37 34 -62
63 -62 70 0 14 -159 165 -180 172 -10 3 -22 15 -25 26 -4 10 -10 19 -15 19 -5
0 -22 14 -38 30 -17 17 -34 30 -38 30 -3 0 -21 16 -40 35 -18 19 -37 35 -43
35 -5 0 -21 10 -34 23 -27 26 -53 43 -84 57 -13 5 -23 14 -23 20 0 5 -9 10
-20 10 -11 0 -20 4 -20 9 0 5 -11 12 -25 15 -14 4 -25 11 -25 16 0 6 -7 10
-15 10 -8 0 -15 4 -15 9 0 5 -14 12 -30 16 -17 4 -30 11 -30 16 0 5 -9 9 -20
9 -11 0 -20 4 -20 10 0 5 -18 13 -40 16 -22 4 -40 10 -40 15 0 5 -11 9 -25 9
-14 0 -25 4 -25 9 0 5 -26 13 -57 16 -32 4 -66 8 -75 9 -10 1 -21 5 -24 9 -10
10 -122 9 -128 -2 -3 -4 -27 -11 -53 -14 -26 -3 -49 -10 -51 -16 -2 -6 -10
-11 -18 -11 -8 0 -14 -3 -14 -8 0 -4 -16 -16 -35 -26 -19 -10 -38 -28 -41 -40
-4 -12 -15 -28 -25 -37 -10 -8 -21 -27 -24 -42 -4 -15 -10 -27 -14 -27 -3 0
-13 -15 -21 -32 -20 -44 -22 -380 -2 -400 6 -6 12 -22 12 -35 0 -13 5 -23 10
-23 6 0 9 -3 8 -7 -3 -17 15 -104 23 -109 5 -3 9 -14 9 -25 0 -10 4 -19 9 -19
5 0 12 -16 16 -36 6 -35 23 -73 36 -84 3 -3 9 -22 13 -42 4 -20 11 -38 16 -40
5 -2 12 -19 15 -38 3 -19 9 -37 14 -40 9 -7 41 -75 41 -89 0 -6 5 -11 10 -11
6 0 10 -6 10 -13 0 -8 6 -27 14 -43 7 -16 20 -44 27 -61 8 -18 17 -33 21 -33
3 0 9 -18 13 -40 4 -22 10 -40 15 -40 4 0 11 -12 14 -27 10 -38 30 -83 37 -83
4 0 10 -16 14 -36 3 -20 10 -44 15 -53 23 -44 40 -91 40 -110 0 -12 5 -21 10
-21 6 0 10 -14 10 -31 0 -16 4 -28 9 -25 5 3 12 -19 16 -49 3 -30 11 -55 16
-55 5 0 9 -11 9 -25 0 -14 4 -25 10 -25 5 0 12 -11 16 -25 3 -14 10 -25 15
-25 5 0 8 -3 7 -7 -3 -16 22 -64 36 -69 8 -3 18 -19 21 -35 4 -16 11 -27 16
-23 5 3 9 -2 9 -10 0 -9 4 -16 9 -16 5 0 13 -10 17 -22 4 -13 15 -30 25 -39
11 -9 19 -21 19 -26 0 -6 10 -22 22 -36 59 -68 68 -81 68 -89 0 -5 11 -20 25
-34 14 -14 25 -31 25 -39 0 -7 9 -17 20 -20 11 -4 20 -15 20 -26 0 -11 7 -22
15 -25 8 -4 15 -12 15 -20 0 -7 11 -24 24 -37 13 -13 27 -33 30 -45 4 -12 12
-22 17 -22 5 0 9 -7 9 -15 0 -8 4 -15 9 -15 5 0 13 -10 17 -22 4 -13 15 -30
24 -38 9 -8 20 -25 24 -37 4 -13 12 -23 17 -23 5 0 9 -7 9 -15 0 -9 7 -18 15
-21 8 -4 13 -10 10 -14 -3 -5 0 -15 7 -22 15 -16 35 -47 45 -68 4 -8 13 -21
20 -28 7 -7 13 -20 13 -28 0 -8 5 -14 10 -14 6 0 10 -7 10 -15 0 -8 4 -15 9
-15 5 0 12 -11 15 -25 4 -14 10 -25 15 -25 5 0 12 -13 16 -30 4 -16 15 -36 24
-42 10 -7 22 -28 25 -46 4 -17 12 -32 17 -32 5 0 9 -7 9 -15 0 -8 4 -15 9 -15
5 0 12 -12 15 -26 4 -15 18 -43 32 -63 13 -19 24 -41 24 -48 0 -7 4 -13 9 -13
5 0 12 -14 16 -30 4 -17 11 -30 16 -30 5 0 9 -9 9 -20 0 -11 4 -20 9 -20 5 0
12 -14 16 -30 4 -17 11 -30 16 -30 5 0 9 -7 9 -15 0 -8 4 -15 9 -15 5 0 12
-16 15 -35 4 -19 11 -35 16 -35 6 0 10 -11 10 -25 0 -14 4 -25 9 -25 5 0 12
-13 16 -30 4 -17 10 -30 15 -30 4 0 11 -16 14 -35 4 -19 11 -35 16 -35 6 0 10
-7 10 -15 0 -8 5 -15 10 -15 6 0 10 -7 10 -16 0 -18 31 -77 43 -82 4 -2 7 -8
7 -14 0 -13 32 -81 41 -88 3 -3 9 -15 13 -27 4 -13 12 -23 17 -23 5 0 9 -7 9
-15 0 -8 5 -15 11 -15 5 0 8 -4 4 -9 -3 -5 -1 -12 5 -16 5 -3 10 -15 10 -26 0
-10 4 -19 9 -19 5 0 12 -14 16 -30 4 -17 11 -30 16 -30 5 0 9 -5 9 -11 0 -6 7
-17 15 -26 8 -8 13 -19 9 -24 -3 -5 2 -12 10 -15 9 -3 16 -15 16 -25 0 -10 4
-19 9 -19 5 0 12 -12 16 -27 3 -15 15 -34 25 -43 10 -9 22 -28 25 -43 4 -15
11 -27 15 -27 5 0 12 -10 16 -22 4 -13 9 -25 13 -28 8 -7 26 -37 47 -77 9 -18
20 -31 24 -28 5 3 11 -9 15 -25 4 -17 15 -36 26 -43 10 -6 19 -20 19 -30 0
-10 7 -20 15 -23 8 -4 15 -15 15 -25 0 -11 7 -22 15 -25 8 -4 15 -12 15 -20 0
-8 4 -14 9 -14 5 0 13 -10 17 -22 4 -13 15 -30 25 -39 11 -9 19 -21 19 -28 0
-6 14 -24 30 -39 17 -16 30 -32 30 -36 0 -4 6 -14 13 -21 27 -31 37 -44 37
-51 0 -4 11 -17 25 -30 14 -13 25 -28 25 -34 0 -6 4 -9 9 -6 5 3 12 -5 15 -18
3 -14 15 -27 26 -31 10 -3 22 -14 25 -25 3 -10 12 -21 20 -24 8 -3 15 -10 15
-17 0 -11 199 -214 210 -214 12 -1 90 -80 90 -92 0 -7 4 -13 9 -13 4 0 12 -31
15 -70 4 -38 11 -72 17 -75 5 -4 9 -19 9 -36 0 -16 4 -29 9 -29 5 0 12 -29 16
-65 3 -36 10 -67 15 -70 4 -2 11 -34 15 -70 3 -36 11 -65 16 -65 5 0 9 -18 9
-40 0 -22 4 -40 9 -40 5 0 12 -34 16 -75 4 -41 11 -75 16 -75 5 0 9 -20 9 -44
0 -24 4 -46 9 -48 6 -1 13 -54 17 -116 4 -61 11 -112 15 -112 5 0 9 -36 9 -79
0 -44 5 -83 10 -86 6 -4 10 -117 10 -306 0 -246 2 -299 14 -299 22 0 29 170
16 415 -6 121 -15 247 -20 280 -5 33 -12 92 -16 130 -4 39 -9 77 -10 85 -2 8
-6 40 -10 70 -4 30 -10 60 -14 65 -4 6 -10 39 -14 75 -4 36 -11 79 -16 95 -5
17 -16 62 -25 100 -9 39 -20 86 -25 105 -5 19 -16 69 -26 110 -9 41 -20 84
-24 95 -15 40 -41 157 -36 162 3 3 42 -21 88 -54 46 -32 96 -67 112 -78 49
-30 180 -95 192 -95 7 0 14 -3 16 -8 3 -8 134 -60 182 -72 17 -5 57 -15 90
-24 121 -33 217 -38 916 -45 388 -3 711 -10 718 -14 7 -5 45 -13 85 -17 81
-10 227 -34 302 -49 28 -6 84 -17 125 -24 41 -7 82 -16 90 -20 8 -3 33 -8 55
-11 22 -2 90 -12 150 -21 189 -27 294 -34 495 -34 270 1 475 26 562 70 10 5
24 9 33 9 34 0 264 100 293 128 7 6 20 12 28 12 8 0 14 5 14 10 0 6 6 10 14
10 8 0 16 3 18 8 5 10 97 72 108 72 6 0 10 4 10 9 0 5 32 34 70 65 39 32 110
97 159 147 50 49 93 89 96 89 4 0 4 -15 1 -32 -4 -18 -11 -58 -15 -88 -19
-128 -34 -206 -42 -222 -5 -10 -9 -32 -9 -50 0 -18 -7 -58 -15 -88 -8 -30 -15
-67 -15 -83 0 -15 -4 -35 -9 -45 -11 -21 -41 -180 -41 -215 0 -14 -4 -28 -9
-31 -5 -4 -12 -40 -16 -81 -4 -42 -11 -78 -16 -81 -5 -3 -9 -22 -9 -42 0 -20
-5 -57 -11 -81 -12 -54 -27 -146 -39 -236 -5 -38 -11 -86 -14 -105 -3 -19 -8
-98 -11 -175 -3 -77 -7 -157 -9 -177 -3 -28 0 -38 10 -38 11 0 14 18 14 79 0
44 4 81 9 83 4 1 11 75 15 163 5 88 8 166 9 173 0 6 4 12 9 12 4 0 8 25 8 56
0 30 4 53 9 50 5 -3 12 39 16 94 3 55 11 100 16 100 5 0 9 18 9 40 0 22 4 40
9 40 4 0 11 35 15 77 4 43 11 82 16 88 4 5 10 28 11 50 2 22 6 42 10 45 7 6
18 77 18 128 1 18 5 31 9 28 5 -3 9 14 11 37 1 23 6 44 11 47 4 3 11 42 15 88
4 45 11 85 16 87 4 3 11 46 15 95 3 49 11 87 16 84 4 -3 8 -2 7 3 -6 34 3 123
11 118 6 -4 9 -3 8 2 -1 4 1 29 6 55 5 33 13 49 26 53 10 3 22 16 26 28 4 12
15 29 24 37 9 8 20 25 24 38 4 12 11 22 16 22 4 0 11 11 14 25 4 14 11 25 16
25 6 0 10 7 10 15 0 8 4 15 9 15 5 0 12 13 16 30 4 16 11 30 16 30 5 0 9 9 9
20 0 11 4 20 9 20 5 0 12 14 16 30 4 17 11 30 16 30 5 0 9 9 9 20 0 11 5 20
10 20 6 0 10 6 10 13 0 6 6 24 14 39 8 15 17 40 21 57 4 17 11 31 16 31 5 0 9
11 9 25 0 14 4 25 9 25 5 0 12 23 16 50 4 28 11 50 16 50 5 0 9 11 9 25 0 14
4 25 9 25 5 0 13 25 16 55 4 30 11 52 16 49 5 -3 9 8 9 25 0 16 4 32 9 35 5 3
12 37 16 76 4 38 11 70 15 70 4 0 11 36 15 80 4 44 11 83 16 86 5 3 9 27 9 55
0 27 4 49 9 49 5 0 12 54 16 120 4 66 11 117 16 114 5 -3 9 31 9 75 0 45 4 81
8 81 5 0 9 6 9 13 8 237 18 407 24 407 5 0 9 63 9 139 0 77 4 141 9 143 6 2
22 393 24 598 0 8 3 17 7 20 4 3 11 95 15 205 4 110 11 202 15 205 5 3 11 39
14 80 14 194 29 329 37 324 7 -4 15 69 10 99 0 4 3 7 8 7 5 0 12 38 16 85 4
47 11 82 16 79 5 -3 9 13 9 35 0 23 4 41 9 41 4 0 11 27 15 60 4 33 11 60 16
60 4 0 11 23 15 50 4 28 10 50 13 50 10 0 30 49 38 90 4 19 10 37 13 40 14 11
30 50 37 86 4 22 10 41 13 44 11 9 31 49 31 62 0 7 7 26 15 41 8 15 17 43 21
62 3 19 9 35 13 35 7 0 27 45 37 82 3 16 9 28 13 28 9 0 29 48 37 88 4 17 10
32 15 32 5 0 9 9 9 20 0 11 4 20 9 20 5 0 12 16 15 35 4 19 11 35 16 35 6 0
10 11 10 25 0 14 5 25 10 25 6 0 10 6 10 13 0 6 7 25 15 40 8 15 17 43 21 62
3 19 9 35 13 35 4 0 15 24 26 53 10 28 21 54 24 57 13 11 30 50 36 84 4 20 11
36 16 36 5 0 9 6 9 14 0 7 7 27 15 42 8 16 15 39 15 52 0 12 4 22 9 22 5 0 12
13 16 30 4 16 11 32 16 35 5 4 9 15 9 26 0 10 4 19 9 19 5 0 11 18 15 40 3 22
11 40 16 40 6 0 10 10 10 23 0 12 7 31 15 41 8 11 15 28 15 38 0 10 5 27 10
38 6 11 14 28 19 39 5 10 13 35 16 55 4 20 11 36 16 36 4 0 11 20 15 45 3 25
10 45 15 45 5 0 9 11 9 25 0 14 4 25 9 25 5 0 12 21 16 46 4 26 10 54 15 63
20 41 29 69 35 108 4 24 11 45 16 49 5 3 9 18 9 34 0 16 4 31 9 34 5 3 12 33
16 66 4 33 10 60 14 60 4 0 8 6 8 13 3 53 17 153 24 157 4 3 8 28 10 55 2 28
7 53 13 57 15 10 14 510 -1 515 -7 3 -13 11 -13 19 0 8 -4 14 -9 14 -5 0 -11
14 -15 31 -6 34 -68 99 -92 99 -8 0 -12 5 -9 10 3 6 0 10 -9 10 -8 0 -16 6
-18 13 -4 9 -39 12 -133 12 -94 0 -129 -3 -132 -12 -3 -7 -10 -13 -16 -13 -20
0 -157 -119 -157 -136 0 -6 -11 -19 -24 -30 -14 -10 -27 -28 -31 -41 -3 -13
-9 -23 -14 -23 -5 0 -12 -13 -16 -30 -4 -16 -11 -30 -16 -30 -5 0 -9 -9 -9
-19 0 -11 -4 -21 -8 -23 -10 -4 -72 -131 -72 -147 0 -6 -4 -11 -10 -11 -5 0
-10 -11 -10 -25 0 -14 -4 -25 -10 -25 -5 0 -13 -18 -16 -40 -4 -22 -10 -40
-14 -40 -5 0 -11 -23 -15 -50 -4 -28 -11 -47 -16 -44 -5 3 -9 -3 -9 -13 0 -11
-4 -23 -9 -28 -5 -6 -12 -28 -15 -49 -4 -22 -11 -45 -16 -51 -6 -7 -11 -24
-12 -39 -1 -14 -5 -26 -9 -26 -4 0 -10 -18 -14 -40 -4 -22 -11 -42 -16 -46 -5
-3 -9 -14 -9 -25 0 -10 -4 -19 -9 -19 -5 0 -11 -22 -15 -50 -4 -27 -11 -50
-16 -50 -6 0 -10 -9 -10 -19 0 -11 -4 -22 -9 -26 -6 -3 -13 -26 -17 -50 -3
-25 -10 -45 -14 -45 -5 0 -11 -18 -15 -40 -4 -22 -11 -40 -16 -40 -5 0 -9 -9
-9 -20 0 -11 -4 -20 -9 -20 -5 0 -11 -18 -15 -40 -3 -22 -10 -40 -14 -40 -8 0
-28 -43 -38 -82 -3 -16 -10 -28 -15 -28 -5 0 -9 -9 -9 -20 0 -11 -4 -20 -9
-20 -5 0 -12 -13 -16 -30 -4 -16 -10 -30 -15 -30 -5 0 -11 -14 -15 -30 -4 -18
-11 -27 -17 -24 -6 4 -8 2 -5 -3 4 -6 0 -16 -7 -23 -8 -6 -18 -25 -21 -41 -4
-16 -11 -29 -16 -29 -5 0 -9 -7 -9 -15 0 -8 -4 -15 -9 -15 -5 0 -13 -15 -17
-32 -3 -18 -15 -39 -24 -45 -10 -7 -21 -31 -25 -53 -4 -22 -11 -40 -15 -40 -5
0 -11 -13 -15 -30 -4 -16 -11 -30 -16 -30 -5 0 -9 -7 -9 -15 0 -8 -4 -15 -9
-15 -5 0 -12 -15 -15 -34 -4 -19 -10 -36 -14 -38 -11 -5 -42 -65 -42 -82 0 -9
-4 -16 -10 -16 -5 0 -10 -7 -10 -15 0 -8 -4 -15 -10 -15 -5 0 -12 -11 -16 -25
-3 -14 -10 -25 -15 -25 -5 0 -9 -7 -9 -15 0 -8 -11 -25 -25 -39 -14 -14 -25
-30 -25 -35 0 -6 -6 -14 -13 -18 -8 -4 -22 -21 -33 -38 -10 -16 -27 -39 -36
-49 -10 -11 -18 -23 -18 -28 0 -4 -19 -26 -42 -48 -24 -23 -43 -44 -43 -48 0
-11 -61 -72 -72 -72 -5 0 -19 -11 -31 -25 -12 -14 -28 -25 -36 -25 -8 0 -16
-5 -18 -10 -2 -6 -20 -13 -40 -17 -31 -4 -42 -1 -63 18 -13 13 -25 32 -25 42
0 9 -4 17 -10 17 -5 0 -10 14 -10 30 0 17 -4 30 -10 30 -6 0 -10 83 -10 229 0
143 4 232 10 236 6 3 10 33 10 66 0 32 4 59 9 59 5 0 12 40 15 90 4 49 11 92
15 95 5 2 12 41 15 85 4 44 12 80 17 80 5 0 9 18 9 40 0 22 4 40 9 40 5 0 12
34 16 75 4 41 11 77 16 81 5 3 9 21 9 40 0 19 4 34 9 34 5 0 12 34 16 75 4 41
11 75 16 75 5 0 9 18 9 39 0 22 4 41 9 43 6 2 13 37 17 78 3 41 10 77 15 78 5
2 9 21 9 42 0 21 4 41 9 44 5 4 12 49 16 101 4 52 11 98 16 101 5 3 9 49 9
103 0 194 13 492 21 479 5 -7 9 36 9 99 0 61 4 113 9 115 5 2 12 71 16 153 4
83 11 158 16 167 5 9 9 48 9 87 0 39 4 71 8 71 5 0 9 6 9 13 3 102 18 263 24
265 5 2 9 37 9 78 0 42 4 73 8 70 9 -5 22 223 22 366 0 40 4 68 10 68 7 0 10
45 9 130 0 74 -5 127 -10 124 -5 -3 -9 21 -9 53 0 82 -11 163 -21 157 -5 -3
-9 11 -9 30 0 20 -4 36 -9 36 -5 0 -11 18 -15 40 -6 38 -23 78 -37 90 -4 3 -9
15 -13 28 -4 12 -12 22 -17 22 -5 0 -9 7 -9 15 0 8 -4 15 -10 15 -5 0 -10 6
-10 13 0 8 -9 24 -20 37 -11 13 -20 27 -20 32 0 11 -69 78 -81 78 -4 0 -11 9
-14 20 -3 11 -17 23 -31 26 -13 3 -24 10 -24 15 0 5 -16 9 -35 9 -19 0 -35 5
-35 10 0 6 -30 10 -70 10 -40 0 -70 -4 -70 -10 0 -5 -16 -10 -35 -10 -19 0
-35 -4 -35 -9 0 -5 -13 -12 -30 -16 -16 -4 -30 -11 -30 -16 0 -5 -9 -9 -20 -9
-11 0 -20 -4 -20 -10 0 -5 -6 -10 -13 -10 -18 0 -97 -77 -97 -95 0 -8 -4 -15
-10 -15 -5 0 -12 -11 -16 -25 -3 -14 -10 -25 -15 -25 -5 0 -9 -7 -9 -15 0 -8
-4 -15 -9 -15 -5 0 -13 -15 -16 -32 -4 -18 -11 -35 -14 -38 -11 -8 -41 -88
-41 -110 0 -11 -4 -20 -10 -20 -5 0 -10 -11 -10 -25 0 -14 -4 -25 -9 -25 -5 0
-12 -25 -16 -55 -3 -30 -10 -57 -15 -60 -5 -3 -12 -41 -16 -85 -3 -44 -11 -80
-15 -80 -5 0 -9 -18 -9 -39 0 -22 -4 -42 -9 -46 -5 -3 -13 -50 -17 -105 -3
-55 -11 -103 -15 -106 -5 -3 -9 -32 -9 -64 0 -32 -4 -61 -9 -64 -4 -3 -11 -76
-15 -163 -4 -87 -12 -162 -17 -167 -5 -6 -9 -38 -9 -73 0 -35 -4 -63 -9 -63
-5 0 -12 -42 -16 -92 -4 -51 -11 -98 -16 -104 -4 -5 -11 -47 -15 -92 -4 -45
-11 -82 -15 -82 -5 0 -9 -13 -9 -29 0 -17 -4 -32 -9 -35 -5 -3 -12 -37 -16
-76 -4 -38 -11 -70 -16 -70 -5 0 -9 -18 -9 -39 0 -22 -4 -42 -9 -46 -6 -3 -13
-37 -17 -75 -3 -39 -11 -70 -15 -70 -5 0 -9 -18 -9 -40 0 -22 -4 -40 -9 -40
-5 0 -12 -35 -16 -77 -4 -43 -11 -83 -16 -88 -4 -6 -11 -59 -15 -118 -4 -59
-11 -110 -15 -113 -5 -3 -9 -36 -9 -74 0 -38 -4 -71 -9 -74 -5 -3 -12 -71 -16
-151 -4 -80 -11 -145 -16 -145 -5 0 -9 -29 -9 -65 0 -37 -4 -65 -10 -65 -5 0
-9 -3 -8 -7 5 -24 -16 -242 -23 -237 -5 3 -9 -22 -9 -55 0 -34 -4 -61 -9 -61
-5 0 -12 -47 -16 -105 -4 -58 -11 -102 -16 -99 -5 3 -9 -10 -9 -28 -1 -66 -13
-153 -21 -156 -5 -2 -9 -26 -9 -53 0 -27 -4 -49 -9 -49 -5 0 -12 -36 -16 -80
-4 -44 -11 -80 -16 -80 -5 0 -9 -18 -9 -39 0 -22 -4 -42 -9 -45 -5 -3 -12 -31
-16 -61 -3 -30 -9 -55 -13 -55 -4 0 -16 -18 -26 -40 -11 -22 -22 -40 -26 -40
-4 0 -10 -9 -13 -21 -3 -11 -15 -23 -26 -26 -12 -3 -21 -9 -21 -14 0 -5 -15
-9 -32 -9 -23 1 -39 9 -53 26 -11 14 -30 36 -42 49 -12 13 -25 35 -29 49 -3
14 -10 26 -15 26 -5 0 -9 6 -9 14 0 8 -5 16 -10 18 -6 2 -13 37 -17 78 -3 41
-10 80 -15 87 -12 15 -11 762 1 777 5 6 12 127 16 269 4 141 11 257 16 257 5
0 9 52 9 115 0 70 4 115 10 115 6 0 10 97 10 271 0 177 -3 268 -10 264 -8 -5
-17 181 -11 218 1 5 -3 6 -9 2 -7 -4 -10 164 -10 524 0 342 4 532 10 536 12 8
13 45 1 45 -6 0 -17 147 -24 327 0 7 -4 10 -9 7 -4 -3 -8 31 -8 75 0 47 -4 81
-10 81 -5 0 -9 3 -8 8 5 20 -15 342 -22 342 -4 0 -10 89 -14 198 -4 108 -12
199 -17 200 -5 2 -9 21 -9 43 0 21 -4 39 -9 39 -5 0 -12 23 -16 50 -4 28 -11
50 -16 50 -5 0 -9 7 -9 15 0 8 -4 15 -10 15 -5 0 -10 6 -10 14 0 19 -76 96
-117 119 -17 9 -40 17 -50 17 -10 0 -24 5 -31 12 -12 12 -258 20 -334 11z
m263 -28 c122 -23 193 -63 234 -133 11 -18 22 -32 26 -32 4 0 11 -15 14 -32 4
-18 11 -37 15 -43 4 -5 10 -30 14 -55 4 -25 9 -56 11 -70 3 -14 9 -79 15 -145
5 -66 14 -172 19 -235 5 -63 12 -142 16 -175 3 -33 10 -103 15 -155 5 -52 17
-169 26 -260 12 -114 16 -229 14 -375 -8 -608 -3 -825 31 -1251 12 -150 4
-433 -21 -749 -27 -339 -44 -700 -44 -925 0 -251 15 -465 34 -484 6 -6 10 -20
10 -33 0 -13 4 -23 9 -23 5 0 12 -12 15 -26 17 -65 91 -147 144 -159 35 -7 96
17 124 50 35 41 88 157 94 208 4 28 10 57 14 62 4 6 10 30 13 55 2 25 7 56 11
70 6 24 15 73 36 199 5 32 14 79 19 102 6 24 11 61 11 81 0 20 5 40 10 43 6 3
10 25 10 48 0 23 5 62 11 86 5 25 14 81 20 125 5 45 16 135 24 201 9 66 18
140 20 165 3 25 12 106 21 180 8 74 17 149 20 165 2 17 9 73 14 125 5 52 11
107 14 121 3 15 10 53 16 85 5 33 13 79 18 104 5 25 15 74 22 110 7 36 15 72
18 80 6 15 27 122 39 190 3 19 9 40 13 45 4 6 11 33 14 60 4 28 11 64 16 80
16 56 40 185 40 220 0 18 4 36 9 39 4 3 11 31 14 63 4 32 9 74 12 93 12 73 26
210 36 350 5 80 14 155 19 168 6 13 10 45 10 72 0 27 4 51 9 54 4 3 11 43 15
88 4 46 11 97 16 113 5 17 16 68 25 115 10 47 21 94 25 105 5 11 16 52 26 90
10 39 24 81 31 95 7 14 13 30 13 36 0 5 11 34 25 62 14 29 25 56 25 62 0 5 5
10 10 10 6 0 10 5 10 11 0 13 60 88 98 124 14 13 50 35 81 50 31 15 65 31 75
37 27 14 199 14 204 -1 2 -6 12 -11 23 -11 27 0 81 -51 142 -135 28 -38 54
-72 57 -75 11 -11 70 -138 70 -152 0 -7 4 -18 8 -23 12 -14 32 -88 45 -160 20
-119 9 -647 -18 -830 -8 -52 -22 -174 -41 -355 -8 -80 -19 -181 -24 -225 -30
-261 -57 -618 -66 -850 -3 -93 -10 -201 -14 -240 -16 -127 -29 -206 -40 -243
-5 -20 -10 -51 -10 -69 0 -17 -4 -34 -9 -37 -4 -3 -11 -25 -14 -48 -8 -66 -28
-161 -37 -179 -4 -8 -11 -46 -15 -82 -4 -37 -11 -70 -16 -73 -5 -3 -9 -16 -9
-30 0 -22 -15 -96 -40 -194 -5 -19 -16 -78 -25 -130 -9 -52 -21 -111 -25 -130
-31 -128 -53 -341 -53 -515 0 -209 22 -307 79 -360 82 -76 213 11 419 275 19
25 39 50 43 55 5 6 17 24 28 40 10 17 21 32 24 35 15 14 58 80 75 115 11 22
23 42 28 43 4 2 7 9 7 15 0 6 43 97 95 202 52 105 95 197 95 203 0 7 5 12 10
12 6 0 10 6 10 14 0 8 3 16 8 18 4 2 23 35 42 73 19 39 38 72 43 73 4 2 7 8 7
12 0 7 31 76 90 205 6 11 21 52 36 90 14 39 31 84 39 100 7 17 20 53 30 80 9
28 20 59 25 70 21 52 40 112 40 128 0 9 4 17 9 17 5 0 12 23 16 50 4 28 11 50
16 50 5 0 9 8 9 18 1 20 34 119 44 129 3 3 6 17 6 29 0 13 4 25 9 29 5 3 13
20 17 37 3 18 10 39 14 48 18 34 40 89 40 98 0 6 11 32 25 58 14 26 25 53 25
60 0 7 3 14 8 16 4 2 22 33 41 70 19 36 48 84 65 105 51 62 146 153 162 153 8
0 14 4 14 9 0 17 80 41 134 41 66 0 129 -26 177 -71 82 -78 114 -169 112 -319
-1 -104 -21 -349 -30 -370 -3 -8 -9 -37 -13 -65 -11 -71 -30 -166 -40 -190
-10 -26 -31 -112 -38 -150 -2 -16 -8 -34 -12 -40 -5 -5 -11 -31 -15 -57 -4
-27 -11 -48 -16 -48 -5 0 -9 -11 -9 -24 0 -14 -4 -27 -9 -30 -5 -4 -12 -25
-16 -49 -4 -23 -10 -46 -14 -52 -4 -5 -15 -37 -26 -70 -10 -33 -22 -64 -25
-70 -4 -5 -16 -38 -26 -72 -10 -35 -22 -63 -26 -63 -5 0 -8 -10 -8 -22 0 -13
-7 -36 -15 -52 -8 -15 -15 -35 -15 -42 0 -8 -4 -14 -9 -14 -5 0 -12 -18 -16
-40 -4 -22 -11 -40 -16 -40 -5 0 -9 -7 -9 -15 0 -14 -7 -33 -54 -138 -14 -32
-26 -62 -26 -67 0 -6 -4 -18 -10 -28 -5 -9 -16 -35 -26 -57 -18 -44 -30 -72
-68 -158 -14 -32 -26 -61 -26 -65 0 -5 -11 -32 -25 -60 -14 -29 -25 -56 -25
-61 0 -5 -6 -22 -14 -38 -26 -51 -55 -117 -75 -168 -10 -27 -33 -80 -50 -118
-17 -37 -31 -70 -31 -73 0 -3 -6 -20 -14 -37 -7 -18 -21 -52 -31 -77 -10 -25
-24 -59 -31 -77 -8 -17 -14 -37 -14 -45 0 -8 -4 -18 -8 -23 -5 -6 -17 -32 -26
-60 -10 -27 -21 -59 -25 -70 -41 -103 -91 -285 -91 -329 0 -12 -3 -26 -7 -30
-7 -7 -27 -123 -39 -226 -3 -25 -8 -52 -12 -60 -6 -15 -22 -159 -41 -365 -6
-60 -13 -135 -16 -167 -6 -56 -18 -263 -35 -593 -5 -93 -12 -215 -15 -270 -4
-55 -11 -165 -15 -245 -16 -269 -29 -445 -36 -485 -7 -43 -17 -123 -34 -275
-6 -52 -15 -104 -20 -115 -5 -11 -11 -40 -13 -65 -3 -25 -7 -52 -9 -60 -3 -8
-8 -37 -12 -65 -4 -27 -11 -59 -16 -70 -4 -11 -16 -56 -26 -100 -10 -44 -21
-84 -25 -90 -4 -5 -10 -30 -14 -55 -4 -24 -11 -52 -16 -62 -5 -10 -13 -26 -18
-36 -5 -10 -12 -33 -16 -52 -8 -36 -11 -44 -39 -97 -9 -17 -16 -41 -16 -52 0
-12 -4 -21 -8 -21 -4 0 -16 -23 -27 -50 -11 -28 -22 -50 -26 -50 -4 0 -10 -11
-13 -25 -4 -14 -22 -50 -41 -80 -19 -30 -35 -57 -35 -61 0 -4 -11 -22 -25 -40
-14 -18 -25 -35 -25 -39 0 -10 -81 -117 -112 -148 -15 -16 -28 -32 -28 -35 -1
-17 -175 -185 -279 -268 -13 -10 -37 -31 -54 -46 -18 -16 -35 -28 -39 -28 -3
0 -13 -6 -20 -13 -16 -15 -133 -88 -168 -104 -14 -6 -55 -25 -91 -42 -37 -17
-76 -31 -88 -31 -12 0 -21 -4 -21 -8 0 -7 -38 -18 -130 -38 -14 -3 -34 -9 -45
-14 -55 -23 -214 -35 -455 -35 -244 1 -364 10 -560 44 -30 5 -93 16 -140 24
-47 8 -85 16 -85 17 0 2 -115 22 -205 36 -19 3 -44 9 -55 14 -23 10 -176 28
-345 40 -275 21 -433 23 -714 10 -265 -12 -313 -11 -507 5 -118 9 -218 20
-224 23 -5 3 -27 9 -50 13 -78 15 -140 31 -150 40 -5 5 -18 9 -30 9 -11 0 -33
7 -49 15 -15 8 -35 15 -42 15 -8 0 -14 5 -14 10 0 6 -6 10 -14 10 -15 0 -139
63 -201 101 -22 14 -48 28 -57 32 -10 3 -18 11 -18 17 0 5 -7 10 -15 10 -8 0
-15 4 -15 9 0 5 -8 12 -18 15 -10 4 -27 14 -38 24 -10 9 -39 33 -64 52 -59 46
-102 83 -173 150 -59 55 -77 74 -152 159 -22 26 -50 56 -62 68 -13 12 -23 26
-23 32 0 5 -4 11 -8 13 -4 2 -23 23 -42 48 -19 24 -43 53 -52 64 -10 11 -18
23 -18 26 0 4 -9 18 -21 31 -11 13 -28 33 -37 44 -10 11 -32 45 -51 75 -18 30
-37 57 -40 60 -4 3 -48 70 -97 150 -78 125 -112 182 -168 285 -6 11 -13 22
-16 25 -6 6 -27 46 -84 155 -22 44 -43 82 -46 85 -3 3 -21 37 -40 75 -19 39
-37 72 -40 75 -3 3 -25 46 -49 95 -24 50 -54 111 -67 136 -13 26 -24 54 -24
63 0 9 -3 16 -7 16 -5 0 -17 21 -27 48 -11 26 -22 49 -25 52 -9 7 -71 138 -71
149 0 5 -3 11 -7 13 -5 2 -24 35 -43 73 -19 39 -38 72 -41 75 -3 3 -21 36 -40
73 -19 38 -38 77 -44 88 -5 10 -13 19 -17 19 -5 0 -8 6 -8 13 -1 6 -21 44 -45
82 -25 39 -61 99 -82 135 -20 36 -39 67 -43 70 -3 3 -21 30 -40 60 -30 48 -56
86 -90 127 -6 7 -10 15 -10 18 0 6 -48 74 -60 85 -3 3 -14 19 -24 35 -11 17
-51 73 -90 125 -39 52 -86 118 -105 145 -19 28 -38 52 -43 53 -4 2 -8 10 -8
17 0 8 -6 20 -13 27 -51 54 -147 255 -147 309 0 16 -4 29 -9 29 -5 0 -11 18
-15 40 -3 23 -10 49 -15 58 -17 32 -41 90 -41 99 0 5 -9 27 -19 49 -11 22 -23
52 -26 67 -4 15 -11 27 -16 27 -5 0 -9 6 -9 14 0 13 -48 127 -70 168 -6 10
-10 25 -10 33 0 8 -4 15 -10 15 -5 0 -10 5 -10 11 0 6 -13 40 -30 76 -16 35
-30 71 -30 79 0 8 -3 14 -7 14 -5 0 -16 21 -27 48 -10 26 -24 61 -32 79 -8 17
-14 36 -14 42 0 6 -4 19 -9 29 -21 40 -41 91 -41 106 0 9 -4 24 -9 34 -15 26
-41 147 -41 186 0 19 -4 38 -10 41 -12 8 -13 132 -1 139 4 3 10 27 13 53 5 57
44 138 90 189 40 44 100 84 127 84 11 0 23 5 26 10 3 6 52 10 110 10 58 0 107
-4 110 -10 3 -5 18 -10 33 -10 24 0 191 -57 202 -70 3 -3 31 -18 62 -34 62
-30 277 -169 293 -189 6 -7 30 -28 55 -47 127 -98 307 -282 422 -430 24 -30
48 -61 55 -68 7 -7 13 -20 13 -28 0 -8 4 -14 8 -14 4 0 16 -15 27 -33 10 -17
21 -34 25 -37 8 -6 63 -123 80 -170 7 -19 18 -48 25 -65 7 -16 20 -52 30 -78
10 -26 22 -50 26 -53 5 -3 9 -14 9 -25 0 -10 5 -19 10 -19 6 0 10 -7 10 -15 0
-14 30 -85 40 -95 3 -3 17 -29 32 -58 38 -73 62 -116 69 -122 3 -3 22 -33 43
-68 21 -34 43 -68 50 -75 6 -6 22 -28 36 -47 32 -47 247 -258 271 -265 11 -4
19 -10 19 -15 0 -4 11 -11 25 -14 14 -4 25 -11 25 -16 0 -6 7 -10 15 -10 8 0
15 -4 15 -10 0 -5 11 -12 25 -16 14 -3 25 -10 25 -15 0 -5 4 -9 9 -9 5 0 45
-16 87 -36 43 -20 93 -38 111 -41 19 -3 36 -10 39 -14 3 -5 27 -9 53 -9 41 0
52 5 83 35 40 40 73 128 90 240 13 83 17 805 5 980 -9 132 -33 340 -47 395
-10 39 -36 204 -47 295 -17 142 -5 485 21 595 13 54 31 239 31 315 -1 131 -36
538 -56 640 -13 66 -32 303 -31 385 0 36 8 189 18 340 24 359 24 698 0 950
-10 107 -18 260 -18 340 2 309 18 846 27 860 5 8 12 32 16 55 12 71 33 145 41
145 5 0 8 9 8 21 0 61 150 269 194 269 9 0 16 3 16 8 0 10 75 42 98 42 10 0
24 6 30 13 17 16 292 17 313 1 8 -6 27 -14 43 -18 25 -6 82 -42 111 -71 18
-17 75 -111 75 -123 0 -5 3 -12 8 -14 7 -3 41 -72 76 -151 9 -21 16 -47 16
-57 0 -11 4 -20 9 -20 5 0 13 -25 16 -55 4 -30 11 -55 16 -55 5 0 9 -16 9 -35
0 -19 4 -43 10 -53 5 -9 15 -66 20 -127 34 -362 34 -355 29 -950 -1 -121 1
-258 5 -305 11 -149 25 -304 31 -350 3 -25 12 -106 21 -180 8 -74 19 -148 24
-165 4 -16 11 -57 15 -90 4 -32 9 -68 12 -80 2 -11 8 -58 14 -105 5 -47 11
-101 14 -120 3 -19 10 -96 16 -170 12 -171 26 -346 34 -430 3 -36 10 -112 15
-170 18 -202 29 -305 35 -345 3 -22 9 -59 12 -83 3 -23 10 -45 14 -48 5 -3 9
-15 9 -27 1 -20 20 -81 48 -150 7 -16 12 -33 12 -38 0 -5 3 -9 8 -9 4 0 13
-14 21 -31 15 -35 82 -106 123 -132 60 -37 168 -13 210 47 12 17 25 33 29 36
3 3 10 16 14 30 4 14 11 27 14 30 14 10 41 149 41 208 0 34 4 63 8 66 28 17
37 982 13 1376 -14 232 -18 528 -11 760 3 80 -1 309 -9 510 -17 445 -17 531
-2 640 14 98 16 119 36 295 8 72 17 148 19 170 3 22 10 83 16 135 6 52 15 103
20 112 6 10 10 33 10 52 0 19 4 37 9 40 5 3 12 31 16 62 4 32 10 64 14 73 5 9
23 59 41 111 49 143 52 152 95 221 34 56 65 92 118 135 33 27 107 61 157 72
116 25 146 26 251 7z"/>
<path d="M5885 10928 c-71 -5 -140 -13 -153 -18 -13 -6 -35 -10 -50 -10 -31 0
-60 -15 -50 -26 4 -4 20 -2 35 4 76 30 501 53 623 33 143 -22 191 -27 196 -19
3 4 -5 8 -18 8 -13 0 -28 4 -34 9 -11 11 -263 32 -354 30 -36 -1 -123 -6 -195
-11z"/>
<path d="M3910 10680 c-14 -5 -54 -14 -90 -20 -104 -17 -119 -21 -132 -38 -11
-13 -10 -14 12 -9 14 4 50 13 80 20 30 7 64 18 75 23 30 14 492 11 540 -3 61
-18 135 -31 135 -24 0 12 -57 30 -130 42 -90 14 -455 21 -490 9z"/>
<path d="M5870 9493 c-52 -8 -103 -19 -112 -24 -10 -5 -26 -9 -35 -9 -10 -1
-31 -7 -48 -15 l-30 -15 35 4 c19 3 67 12 105 21 39 9 111 21 160 27 108 12
474 5 501 -10 10 -5 42 -13 69 -17 45 -6 48 -6 30 7 -11 8 -63 22 -116 31
-120 21 -421 21 -559 0z"/>
<path d="M7532 9339 c5 -16 83 -37 142 -38 22 -1 53 -5 70 -10 17 -5 72 -15
121 -22 242 -32 314 -48 377 -80 22 -11 48 -12 48 -1 0 10 -48 30 -90 38 -19
3 -44 9 -55 13 -27 11 -187 41 -216 41 -12 0 -36 4 -53 9 -17 6 -74 15 -126
22 -130 16 -182 25 -204 34 -14 6 -18 5 -14 -6z"/>
<path d="M4188 9215 c-2 -3 -45 -9 -94 -14 -172 -19 -315 -50 -322 -70 -3 -10
0 -12 14 -7 11 4 44 12 74 18 30 6 64 14 75 19 24 10 279 34 355 33 30 0 94
-4 143 -9 121 -11 113 8 -10 23 -99 12 -226 16 -235 7z"/>
<path d="M4406 6824 c-3 -8 -6 -17 -6 -20 0 -2 845 -5 1878 -6 l1877 -3 57
-23 c75 -30 138 -80 176 -139 64 -99 60 -34 67 -1180 5 -736 4 -1067 -4 -1112
-6 -36 -8 -67 -6 -69 3 -3 13 12 22 34 17 36 18 111 21 1083 2 685 -1 1062 -8
1100 -26 142 -122 261 -260 322 l-55 24 -1876 3 c-1709 2 -1877 1 -1883 -14z"/>
<path d="M4331 6552 c-19 -9 -44 -30 -55 -45 -21 -28 -21 -32 -21 -1091 0
-998 1 -1064 18 -1089 9 -15 29 -35 44 -44 26 -17 131 -18 1908 -21 2088 -3
1942 -7 1985 62 20 33 20 44 20 1092 0 1045 0 1059 -20 1092 -41 66 100 62
-1967 62 -1768 0 -1880 -1 -1912 -18z m719 -866 c0 -279 -4 -437 -10 -441 -7
-4 -10 143 -10 434 0 287 3 441 10 441 7 0 10 -151 10 -434z"/>
<path d="M3982 5355 c-2 -897 0 -1049 13 -1098 38 -147 130 -246 276 -299 64
-23 66 -23 670 -26 l606 -3 11 -22 c32 -68 84 -275 112 -447 6 -41 15 -88 20
-105 5 -16 11 -75 14 -130 11 -176 29 -335 39 -335 10 0 9 20 -13 270 -10 104
-35 293 -43 325 -3 11 -13 61 -22 110 -9 50 -21 99 -25 110 -9 20 -34 132 -44
192 l-5 32 1237 3 1237 3 65 23 c36 12 76 31 90 43 19 16 20 19 6 15 -93 -31
-115 -31 -1976 -31 -1995 0 -1903 -2 -2005 48 -51 25 -75 46 -75 66 0 15 -29
41 -47 42 -20 1 -74 68 -100 123 l-28 61 -5 1035 -5 1035 -3 -1040z"/>
<path d="M2215 6357 c-155 -94 -154 -93 -229 -160 -17 -15 -50 -44 -74 -65
-24 -20 -63 -56 -88 -79 -25 -24 -48 -43 -52 -43 -4 0 -19 -11 -33 -24 -36
-33 -106 -76 -124 -76 -8 0 -15 -4 -15 -10 0 -5 -6 -10 -14 -10 -16 0 -31 -18
-23 -26 6 -6 81 28 85 39 2 4 8 7 14 7 10 0 68 41 108 78 14 12 28 22 31 22 4
0 27 19 52 43 24 23 63 58 87 77 23 19 54 46 69 60 50 49 174 133 214 146 9 4
17 13 17 20 0 16 1 16 -25 1z"/>
</g>
</svg>
